# xmcd
#
# Track frame offsets: 
#        150
#        28274
#        56990
#        81264
#        116590
#        138034
#        163354
#        192735
#        224076
#
# Disc length: 3185 seconds
#
# Revision: 1
# Processed by: cddbd v1.5.2PL0 Copyright (c) Steve Scherf et al.
# Submitted via: ExactAudioCopy v0.95b4
#
DISCID=910c6f09
DTITLE=William Tang - Out of the Blues
DYEAR=1999
DGENRE=Blues
TTITLE0=Walkin' Round
TTITLE1=Mercy Blues
TTITLE2=Born in Chicago
TTITLE3=Gonna make my way
TTITLE4=Sugar Sweet
TTITLE5=It's Alrite
TTITLE6=Sweet Little Angel
TTITLE7=Thrill has gone
TTITLE8=Go Foo Guy
EXTD=
EXTT0=
EXTT1=
EXTT2=
EXTT3=
EXTT4=
EXTT5=
EXTT6=
EXTT7=
EXTT8=
PLAYORDER=
